<svg width="24" height="24" viewBox="0 0 24 24" fill="none" xmlns="http://www.w3.org/2000/svg">
<path d="M16.1498 23.0004C15.9052 23.0018 15.6628 22.9553 15.4364 22.8636C15.2101 22.7719 15.0042 22.6368 14.8306 22.466L5.54032 13.2537C5.19426 12.9085 5.00002 12.4415 5.00002 11.9547C5.00002 11.468 5.19426 11.001 5.54032 10.6558L14.8306 1.44342C15.186 1.14157 15.6432 0.983845 16.1108 1.00176C16.5785 1.01967 17.0221 1.2119 17.353 1.54003C17.6839 1.86816 17.8777 2.30804 17.8958 2.77174C17.9139 3.23545 17.7548 3.68884 17.4504 4.0413L9.47938 11.9455L17.4504 19.8497C17.7113 20.1063 17.8896 20.4339 17.9628 20.791C18.036 21.1481 18.0007 21.5187 17.8615 21.8559C17.7223 22.1931 17.4854 22.4819 17.1807 22.6856C16.876 22.8893 16.5172 22.9988 16.1498 23.0004Z" fill="black"/>
</svg>
