<svg width="24" height="24" viewBox="0 0 24 24" fill="none" xmlns="http://www.w3.org/2000/svg">
<path d="M2.22222 6.2H21.7778C22.45 6.2 23 5.705 23 5.1C23 4.495 22.45 4 21.7778 4H2.22222C1.55 4 1 4.495 1 5.1C1 5.705 1.55 6.2 2.22222 6.2Z" fill="#757F8C"/>
<path d="M8.22222 19.6453H15.5556C16.2278 19.6453 16.7778 19.1503 16.7778 18.5453C16.7778 17.9403 16.2278 17.4453 15.5556 17.4453H8.22222C7.55 17.4453 7 17.9403 7 18.5453C7 19.1503 7.55 19.6453 8.22222 19.6453Z" fill="#757F8C"/>
<path d="M5.22222 12.9227H18.6667C19.3389 12.9227 19.8889 12.4277 19.8889 11.8227C19.8889 11.2177 19.3389 10.7227 18.6667 10.7227H5.22222C4.55 10.7227 4 11.2177 4 11.8227C4 12.4277 4.55 12.9227 5.22222 12.9227Z" fill="#757F8C"/>
</svg>
