<svg width="24" height="24" viewBox="0 0 24 24" fill="none" xmlns="http://www.w3.org/2000/svg">
<path d="M3.50553 11.989L3.50554 11.989L11.646 19.8744C11.6461 19.8745 11.6463 19.8747 11.6464 19.8748C11.7903 20.0169 11.9838 20.0977 12.186 20.1C12.3885 20.1022 12.5839 20.0257 12.731 19.8865L12.7318 19.8858C14.116 18.5471 15.5013 17.2067 16.8866 15.8664C18.2193 14.577 19.5519 13.2875 20.8836 11.9996C23.0257 9.92805 23.0257 6.53022 20.8836 4.45858C18.7434 2.38875 15.2962 2.38871 13.156 4.45858L13.156 4.45864L12.2049 5.38L11.2332 4.44795C11.2331 4.44789 11.2331 4.44783 11.233 4.44777C10.1625 3.41261 8.76461 2.9 7.3694 2.9H7.2694V2.90096C5.90749 2.92488 4.55052 3.43748 3.5056 4.44804C1.36344 6.51966 1.36619 9.91603 3.50553 11.989ZM10.1482 5.5696L10.1483 5.56968L11.6574 7.02566C11.803 7.16641 11.9975 7.24511 12.1999 7.24511C12.4024 7.24511 12.5969 7.16641 12.7424 7.02566L14.2409 5.58032L14.241 5.58023C15.7791 4.09264 18.2605 4.09267 19.7987 5.58023C21.3349 7.06597 21.3349 9.39248 19.7987 10.8781C18.5272 12.1078 17.2578 13.3375 15.9883 14.5671C14.7244 15.7914 13.4605 17.0157 12.1947 18.2399L4.59064 10.8676L4.59062 10.8676C3.05521 9.3798 3.05438 7.05519 4.59055 5.5696L4.59055 5.5696C5.35953 4.82591 6.36495 4.44987 7.3694 4.44987C8.37384 4.44987 9.37925 4.82591 10.1482 5.5696Z" fill="#757F8C" stroke="#757F8C" stroke-width="0.2"/>
</svg>
