<svg width="25" height="20" viewBox="0 0 25 20" fill="none" xmlns="http://www.w3.org/2000/svg">
<path d="M24.3222 0.208476C24.8153 0.468892 25.0741 0.919041 24.9814 1.36919L21.8563 16.8454C21.7831 17.2062 21.495 17.5225 21.0751 17.701C20.6551 17.8796 20.1522 17.9019 19.7078 17.7606L13.8679 15.9116L10.5231 18.6683C10.0886 19.0292 9.40495 19.1482 8.80435 18.9696C8.20376 18.7911 7.81313 18.3484 7.81313 17.8573V14.7472C7.81313 14.5984 7.88637 14.457 8.01821 14.3454L16.2019 7.54479C16.4851 7.31041 16.4754 6.94955 16.1824 6.72633C15.8894 6.50312 15.4158 6.48824 15.1082 6.70029L5.17637 13.4228L0.86478 11.7784C0.347194 11.5812 0.0151572 11.1869 0.000508579 10.7479C-0.0141401 10.3089 0.288599 9.8997 0.786654 9.6802L22.662 0.156392C23.1845 -0.0705423 23.829 -0.0482209 24.3222 0.208476Z" fill="white"/>
</svg>
