<svg width="24" height="24" viewBox="0 0 24 24" fill="none" xmlns="http://www.w3.org/2000/svg">
<path d="M15.1223 13.2542C16.8303 12.1691 17.9697 10.2384 17.9697 8.04041C17.9697 4.65641 15.2699 1.9 11.9471 1.9C8.62437 1.9 5.92454 4.65641 5.92454 8.04041C5.92454 10.2551 7.08127 12.1989 8.81097 13.2791C5.3612 14.6048 2.9 18.0134 2.9 22V22.1H3H4.26913H4.36913V22C4.36913 17.6864 7.79471 14.1808 12 14.1808C16.2055 14.1808 19.6309 17.6864 19.6309 22V22.1H19.7309H21H21.1V22C21.1 17.9877 18.6073 14.5614 15.1223 13.2542ZM7.39366 8.04041C7.39366 5.47676 9.43824 3.39437 11.9471 3.39437C14.456 3.39437 16.5006 5.47676 16.5006 8.04041C16.5006 10.604 14.456 12.6864 11.9471 12.6864C9.43824 12.6864 7.39366 10.6038 7.39366 8.04041Z" fill="#757F8C" stroke="#757F8C" stroke-width="0.2"/>
</svg>
